Coordinates
version=1
nRows=18
nColumns=63
inDegrees=yes

Units are S.I. units (second, meters, Newtons, ...)
If the header above contains a line with 'inDegrees', this indicates whether rotational values are in degrees (yes) or radians (no).

endheader
time	pelvis_tilt	pelvis_list	pelvis_rotation	pelvis_tx	pelvis_ty	pelvis_tz	hip_flexion_r	hip_adduction_r	hip_rotation_r	knee_angle_r	knee_angle_r_beta	ankle_angle_r	subtalar_angle_r	mtp_angle_r	hip_flexion_l	hip_adduction_l	hip_rotation_l	knee_angle_l	knee_angle_l_beta	ankle_angle_l	subtalar_angle_l	mtp_angle_l	L5_S1_Flex_Ext	L5_S1_Lat_Bending	L5_S1_axial_rotation	L4_L5_Flex_Ext	L4_L5_Lat_Bending	L4_L5_axial_rotation	L3_L4_Flex_Ext	L3_L4_Lat_Bending	L3_L4_axial_rotation	L2_L3_Flex_Ext	L2_L3_Lat_Bending	L2_L3_axial_rotation	L1_L2_Flex_Ext	L1_L2_Lat_Bending	L1_L2_axial_rotation	L1_T12_Flex_Ext	L1_T12_Lat_Bending	L1_T12_axial_rotation	Abs_r3	Abs_r2	Abs_r1	Abs_t1	Abs_t2	neck_flexion	neck_bending	neck_rotation	arm_flex_r	arm_add_r	arm_rot_r	elbow_flex_r	pro_sup_r	wrist_flex_r	wrist_dev_r	arm_flex_l	arm_add_l	arm_rot_l	elbow_flex_l	pro_sup_l	wrist_flex_l	wrist_dev_l
1.949153	-1.577610	-1.197803	86.013882	0.336460	0.981110	0.406348	-1.561689	2.786543	8.075559	6.559435	0.114484	28.478656	-13.074845	0.000000	5.575803	-1.900205	5.569752	18.318621	0.319720	38.440049	-10.598034	0.000000	0.341291	-0.231868	0.253922	0.633811	-0.308385	0.269792	0.560707	-0.563765	0.269792	0.390061	-0.563765	0.222182	0.316923	-0.472826	0.206312	0.195014	-0.359164	0.190442	2.437807	-2.622941	1.412239	0.000000	0.000000	27.297336	-7.002208	-13.073388	12.761057	-30.321144	55.408936	84.623907	75.965140	23.563570	-4.669945	4.264255	-25.737684	42.104254	82.582955	75.551219	25.319733	2.146182
1.966102	-1.713107	-1.291116	86.461637	0.336060	0.981481	0.406749	-1.362211	2.684750	7.570596	6.698595	0.116913	28.414176	-13.131613	0.000000	5.820027	-1.738990	6.063542	18.366129	0.320549	38.354024	-10.668628	0.000000	0.347098	-0.236905	0.144201	0.644595	-0.315084	0.153213	0.570247	-0.576011	0.153213	0.396698	-0.576011	0.126176	0.322315	-0.483097	0.117163	0.198332	-0.366966	0.108151	2.479284	-2.679916	0.802002	0.000000	0.000000	27.249501	-6.379002	-12.480543	14.040222	-30.783075	57.323294	85.040891	75.049700	23.987074	-4.613797	4.435962	-26.355925	42.718197	83.333134	75.021128	24.126444	1.442982
1.983051	-1.837854	-1.372682	86.897457	0.335651	0.981885	0.407263	-1.190952	2.589721	7.111561	6.791934	0.118542	28.297737	-13.234057	0.000000	6.056047	-1.589158	6.536894	18.410978	0.321332	38.269147	-10.716036	0.000000	0.350964	-0.241166	0.064882	0.651776	-0.320751	0.068938	0.576599	-0.586372	0.068938	0.401117	-0.586372	0.056772	0.325905	-0.491786	0.052717	0.200541	-0.373567	0.048662	2.506902	-2.728121	0.360857	0.000000	0.000000	27.115345	-5.731685	-12.107597	14.902377	-30.964583	58.634553	85.133477	74.437048	24.491775	-4.423099	4.835116	-26.850127	43.552705	83.678675	74.623344	22.925185	1.076615
2.000000	-1.943285	-1.439934	87.306644	0.335249	0.982305	0.407862	-1.049891	2.508813	6.695165	6.847504	0.119511	28.147841	-13.349325	0.000000	6.275082	-1.461393	6.966333	18.455787	0.322114	38.183128	-10.723096	0.000000	0.352519	-0.243701	0.018364	0.654664	-0.324123	0.019512	0.579154	-0.592535	0.019512	0.402894	-0.592535	0.016069	0.327349	-0.496956	0.014921	0.201430	-0.377493	0.013773	2.518010	-2.756798	0.102137	0.000000	0.000000	26.914006	-5.092863	-11.936837	15.280277	-30.848400	59.298495	84.917469	73.816413	24.935766	-4.036221	5.443248	-27.221256	44.629226	83.649535	74.290902	21.859990	1.138674
2.016949	-2.029495	-1.489479	87.664999	0.334873	0.982730	0.408512	-0.940762	2.444982	6.417380	6.873461	0.119965	27.957902	-13.569571	0.000000	6.462953	-1.353147	7.349355	18.495765	0.322812	38.081488	-10.719635	0.000000	0.351552	-0.244137	0.003430	0.652867	-0.324702	0.003645	0.577564	-0.593594	0.003645	0.401788	-0.593594	0.003001	0.326451	-0.497844	0.002787	0.200877	-0.378168	0.002573	2.511098	-2.761725	0.019078	0.000000	0.000000	26.645703	-4.489543	-11.923101	15.184523	-30.445642	59.377870	84.431476	72.889838	25.116026	-3.422203	6.183365	-27.462359	45.862235	83.305044	73.951622	20.984745	1.675722
2.033898	-2.091076	-1.530712	87.993624	0.334519	0.983137	0.409122	-0.859135	2.395343	6.085401	6.872577	0.119949	27.788228	-13.665562	0.000000	6.623559	-1.281075	7.614264	18.529058	0.323393	37.986520	-10.591203	0.000000	0.350343	-0.242543	0.034986	0.650622	-0.322582	0.037173	0.575579	-0.589719	0.037173	0.400407	-0.589719	0.030613	0.325329	-0.494594	0.028426	0.200186	-0.375699	0.026239	2.502465	-2.743695	0.194581	0.000000	0.000000	26.315692	-3.967794	-12.143404	14.440455	-29.720268	58.568638	83.767889	71.824451	25.085148	-2.436636	7.099014	-27.562303	47.369560	82.673931	73.582645	20.197959	2.588849
2.050847	-2.138733	-1.567694	88.240023	0.334259	0.983524	0.409731	-0.784550	2.352180	5.781225	6.867015	0.119852	27.650358	-13.652950	0.000000	6.753679	-1.234421	7.769215	18.548481	0.323732	37.867205	-10.414262	0.000000	0.348598	-0.238390	0.086221	0.647382	-0.317058	0.091610	0.572712	-0.579621	0.091610	0.398413	-0.579621	0.075443	0.323708	-0.486124	0.070055	0.199189	-0.369266	0.064666	2.490003	-2.696712	0.479536	0.000000	0.000000	25.983307	-3.426924	-12.288589	13.409152	-28.773030	57.418820	82.845344	70.420155	24.726913	-1.281964	7.951008	-27.523815	48.734088	81.902834	73.027576	19.508741	4.087095
2.067797	-2.172328	-1.602767	88.434056	0.334061	0.983887	0.410273	-0.719612	2.318862	5.525385	6.856620	0.119671	27.526763	-13.616861	0.000000	6.855908	-1.208283	7.844239	18.554899	0.323844	37.729070	-10.201185	0.000000	0.346766	-0.231833	0.157051	0.643979	-0.308338	0.166867	0.569701	-0.563679	0.166867	0.396319	-0.563679	0.137420	0.322007	-0.472754	0.127604	0.198142	-0.359109	0.117788	2.476913	-2.622541	0.873471	0.000000	0.000000	25.652990	-2.894011	-12.404251	12.120664	-27.671014	55.963570	81.753375	68.606709	24.086073	0.071521	8.771002	-27.373946	50.045196	81.022334	72.267970	18.770729	5.917655
2.084746	-2.199889	-1.644434	88.546153	0.333957	0.984220	0.410718	-0.643694	2.287681	5.324687	6.864145	0.119802	27.435134	-13.531184	0.000000	6.933255	-1.193522	7.846683	18.540232	0.323588	37.572926	-10.011115	0.000000	0.345470	-0.223067	0.245790	0.641573	-0.296679	0.261152	0.567573	-0.542364	0.261152	0.394838	-0.542364	0.215066	0.320804	-0.454878	0.199705	0.197402	-0.345530	0.184343	2.467659	-2.523375	1.367011	0.000000	0.000000	25.358629	-2.361945	-12.439708	10.702860	-26.507815	54.395001	80.557762	66.297490	23.199182	1.594409	9.519242	-27.138321	51.252749	80.092422	71.295723	17.942455	7.966186
2.101695	-2.233870	-1.704628	88.595183	0.333934	0.984513	0.411033	-0.541464	2.249120	5.192482	6.898594	0.120403	27.370371	-13.448231	0.000000	7.001577	-1.176860	7.787827	18.504162	0.322959	37.412223	-9.838909	0.000000	0.345553	-0.214044	0.344739	0.641726	-0.284678	0.366285	0.567709	-0.520425	0.366285	0.394932	-0.520425	0.301647	0.320880	-0.436478	0.280100	0.197449	-0.331553	0.258554	2.468249	-2.421303	1.917334	0.000000	0.000000	25.128220	-1.851918	-12.426794	9.246613	-25.361709	52.848115	79.369415	63.535808	22.035874	3.223585	10.177308	-26.850853	52.309253	79.159612	70.230988	17.165955	10.102621
2.118644	-2.266603	-1.788774	88.600522	0.333946	0.984761	0.411174	-0.415013	2.207666	5.075348	6.947912	0.121264	27.343852	-13.309050	0.000000	7.068691	-1.160605	7.712698	18.448492	0.321987	37.262514	-9.716902	0.000000	0.348218	-0.203280	0.445317	0.646675	-0.270362	0.473150	0.572087	-0.494255	0.473150	0.397978	-0.494255	0.389653	0.323355	-0.414529	0.361820	0.198972	-0.314881	0.333988	2.487283	-2.299544	2.476722	0.000000	0.000000	24.983853	-1.379274	-12.330475	7.860657	-24.319323	51.531180	78.255627	60.128470	20.638658	4.861559	10.731498	-26.551045	53.265000	78.273187	68.991968	16.343845	12.134332
2.135593	-2.301860	-1.905900	88.548252	0.333995	0.984950	0.411158	-0.245512	2.162909	5.018402	7.026283	0.122632	27.350376	-13.164328	0.000000	7.148889	-1.140176	7.619413	18.380510	0.320800	37.128385	-9.670420	0.000000	0.354192	-0.190748	0.549059	0.657769	-0.253695	0.583375	0.581901	-0.463784	0.583375	0.404806	-0.463784	0.480426	0.328902	-0.388973	0.446110	0.202385	-0.295468	0.411794	2.529955	-2.157778	3.053700	0.000000	0.000000	24.938387	-1.003339	-12.164929	6.606307	-23.437689	50.513618	77.290053	56.241322	19.095471	6.422708	11.200363	-26.262639	54.139173	77.438039	67.759678	15.639029	13.815448
2.152542	-2.354997	-2.040191	88.489414	0.334027	0.985088	0.410957	-0.060675	2.093962	4.953398	7.116123	0.124200	27.409822	-12.985068	0.000000	7.227375	-1.093610	7.548563	18.293820	0.319287	37.013036	-9.681117	0.000000	0.361829	-0.180743	0.649711	0.671952	-0.240388	0.690318	0.594448	-0.439459	0.690318	0.413534	-0.439459	0.568498	0.335994	-0.368572	0.527891	0.206749	-0.279971	0.487284	2.584506	-2.044603	3.613500	0.000000	0.000000	24.996992	-0.708648	-12.051326	5.489772	-22.726721	49.783644	76.543053	51.806339	17.365576	7.945859	11.583934	-26.022485	54.903040	76.725780	66.549582	15.156534	15.308752
2.169492	-2.402777	-2.194301	88.390591	0.334040	0.985163	0.410667	0.158240	2.026199	4.919593	7.236658	0.126304	27.511304	-12.778875	0.000000	7.319930	-1.048024	7.482486	18.212585	0.317870	36.931124	-9.751695	0.000000	0.370787	-0.168160	0.746779	0.688588	-0.223652	0.793453	0.609166	-0.408863	0.793453	0.423772	-0.408863	0.653432	0.344313	-0.342911	0.606758	0.211868	-0.260479	0.560085	2.648494	-1.902255	4.153363	0.000000	0.000000	25.156716	-0.520872	-11.853012	4.592060	-22.223690	49.399561	76.033547	47.037681	15.568044	9.357063	11.874045	-25.835370	55.566425	76.103849	65.374393	14.924027	16.331851
2.186441	-2.446339	-2.358263	88.227995	0.334030	0.985184	0.410327	0.399784	1.956864	4.954430	7.379822	0.128802	27.638807	-12.577239	0.000000	7.413268	-1.002778	7.404861	18.129096	0.316412	36.874875	-9.882625	0.000000	0.379206	-0.152458	0.841138	0.704224	-0.202769	0.893709	0.622998	-0.370686	0.893709	0.433395	-0.370686	0.735996	0.352131	-0.310892	0.683424	0.216679	-0.236157	0.630853	2.708634	-1.724632	4.678156	0.000000	0.000000	25.406619	-0.483299	-11.575712	3.933112	-21.922555	49.338706	75.743395	42.200304	13.803217	10.602823	12.020134	-25.699380	56.058673	75.594901	64.372734	14.863356	16.796292
2.203390	-2.488126	-2.523426	88.022188	0.333980	0.985166	0.410020	0.669175	1.886489	5.041048	7.566505	0.132060	27.772520	-12.414145	0.000000	7.515659	-0.955137	7.315790	18.064304	0.315282	36.836387	-10.067326	0.000000	0.386213	-0.134145	0.926787	0.717236	-0.178413	0.984711	0.634509	-0.326160	0.984711	0.441403	-0.326160	0.810939	0.358637	-0.273548	0.753014	0.220682	-0.207791	0.695090	2.758681	-1.517475	5.154511	0.000000	0.000000	25.705229	-0.509880	-11.152832	3.574171	-21.801026	49.630495	75.619075	37.508361	12.197596	11.689958	12.060960	-25.636480	56.411905	75.179228	63.640945	14.978544	16.640113
2.220339	-2.525060	-2.685812	87.784429	0.333882	0.985119	0.409791	0.958967	1.819734	5.181959	7.785543	0.135883	27.891952	-12.305852	0.000000	7.629930	-0.908460	7.233382	18.025871	0.314611	36.819935	-10.288018	0.000000	0.391160	-0.112045	0.999808	0.726422	-0.149020	1.062296	0.642636	-0.272427	1.062296	0.447056	-0.272427	0.874832	0.363231	-0.228483	0.812344	0.223509	-0.173558	0.749856	2.794013	-1.267480	5.560633	0.000000	0.000000	26.023732	-0.568354	-10.512757	3.525477	-21.834044	50.252881	75.592227	33.194415	10.869424	12.556249	12.002431	-25.636775	56.614551	74.838183	63.264099	15.224379	15.853513
2.237288	-2.554681	-2.846777	87.531399	0.333729	0.985059	0.409668	1.265556	1.762335	5.375996	8.020302	0.139981	27.967647	-12.283700	0.000000	7.763621	-0.865454	7.162303	18.019011	0.314491	36.809293	-10.540079	0.000000	0.394303	-0.085824	1.053674	0.732260	-0.114147	1.119528	0.647800	-0.208674	1.119528	0.450649	-0.208674	0.921964	0.366150	-0.175013	0.856110	0.225305	-0.132942	0.790255	2.816467	-0.970863	5.860217	0.000000	0.000000	26.325245	-0.622510	-9.631387	3.774590	-21.979113	51.172903	75.571011	29.637188	9.909301	13.030557	11.825025	-25.694020	56.650126	74.588303	63.228320	15.382743	14.568597
